<?xml version="1.0" encoding="UTF-8" standalone="no"?>
<!-- Created with Inkscape (http://www.inkscape.org/) -->

<svg
   xmlns:dc="http://purl.org/dc/elements/1.1/"
   xmlns:cc="http://creativecommons.org/ns#"
   xmlns:rdf="http://www.w3.org/1999/02/22-rdf-syntax-ns#"
   xmlns:svg="http://www.w3.org/2000/svg"
   xmlns="http://www.w3.org/2000/svg"
   xmlns:sodipodi="http://sodipodi.sourceforge.net/DTD/sodipodi-0.dtd"
   xmlns:inkscape="http://www.inkscape.org/namespaces/inkscape"
   width="32"
   height="32"
   id="svg2"
   version="1.1"
   inkscape:version="0.91 r13725"
   sodipodi:docname="modelo-search-32.svg">
  <defs
     id="defs4" />
  <sodipodi:namedview
     id="base"
     pagecolor="#ffffff"
     bordercolor="#666666"
     borderopacity="1.0"
     inkscape:pageopacity="0.0"
     inkscape:pageshadow="2"
     inkscape:zoom="11.587234"
     inkscape:cx="4.2385479"
     inkscape:cy="15.302711"
     inkscape:document-units="px"
     inkscape:current-layer="layer1"
     showgrid="false"
     inkscape:window-width="1680"
     inkscape:window-height="1000"
     inkscape:window-x="0"
     inkscape:window-y="0"
     inkscape:window-maximized="1" />
  <metadata
     id="metadata7">
    <rdf:RDF>
      <cc:Work
         rdf:about="">
        <dc:format>image/svg+xml</dc:format>
        <dc:type
           rdf:resource="http://purl.org/dc/dcmitype/StillImage" />
        <dc:title></dc:title>
      </cc:Work>
    </rdf:RDF>
  </metadata>
  <g
     inkscape:label="Camada 1"
     inkscape:groupmode="layer"
     id="layer1"
     transform="translate(0,-1020.3622)">
    <g
       id="g3069"
       transform="matrix(0.71346152,0,0,0.71923076,-1.3177628,296.8471)">
      <g
         id="g3041">
        <path
           sodipodi:type="arc"
           style="fill:#000000;fill-opacity:1;fill-rule:nonzero;stroke:none"
           id="path2985"
           sodipodi:cx="25.200148"
           sodipodi:cy="22.799852"
           sodipodi:rx="17.260374"
           sodipodi:ry="17.260374"
           d="M 42.460522,22.799852 A 17.260374,17.260374 0 0 1 25.264614,40.060106 17.260374,17.260374 0 0 1 7.9402551,22.928784 17.260374,17.260374 0 0 1 25.006753,5.5405618 17.260374,17.260374 0 0 1 42.458596,22.541997"
           transform="matrix(1.3,0,0,1.3,-8.5956669,998.73041)"
           sodipodi:start="0"
           sodipodi:end="6.2682456"
           sodipodi:open="true" />
        <path
           sodipodi:open="true"
           sodipodi:end="6.2682456"
           sodipodi:start="0"
           transform="matrix(1.17,0,0,1.17,-5.1470439,1001.5218)"
           d="M 42.460522,22.799852 A 17.260374,17.260374 0 0 1 25.264614,40.060106 17.260374,17.260374 0 0 1 7.9402551,22.928784 17.260374,17.260374 0 0 1 25.006753,5.5405618 17.260374,17.260374 0 0 1 42.458596,22.541997"
           sodipodi:ry="17.260374"
           sodipodi:rx="17.260374"
           sodipodi:cy="22.799852"
           sodipodi:cx="25.200148"
           id="path2987"
           style="fill:#ffffff;fill-opacity:1;fill-rule:nonzero;stroke:none"
           sodipodi:type="arc" />
      </g>
      <g
         id="g3063">
        <g
           id="g3045"
           transform="matrix(0.29230767,0,0,0.29230767,22.344914,723.88056)">
          <path
             sodipodi:type="arc"
             style="fill:#000000;fill-opacity:1;fill-rule:nonzero;stroke:none"
             id="path3047"
             sodipodi:cx="25.200148"
             sodipodi:cy="22.799852"
             sodipodi:rx="17.260374"
             sodipodi:ry="17.260374"
             d="M 42.460522,22.799852 A 17.260374,17.260374 0 0 1 25.264614,40.060106 17.260374,17.260374 0 0 1 7.9402551,22.928784 17.260374,17.260374 0 0 1 25.006753,5.5405618 17.260374,17.260374 0 0 1 42.458596,22.541997"
             transform="matrix(1.3,0,0,1.3,-8.5956669,998.73041)"
             sodipodi:start="0"
             sodipodi:end="6.2682456"
             sodipodi:open="true" />
          <path
             sodipodi:open="true"
             sodipodi:end="6.2682456"
             sodipodi:start="0"
             transform="matrix(1.17,0,0,1.17,-5.1470439,1001.5218)"
             d="M 42.460522,22.799852 A 17.260374,17.260374 0 0 1 25.264614,40.060106 17.260374,17.260374 0 0 1 7.9402551,22.928784 17.260374,17.260374 0 0 1 25.006753,5.5405618 17.260374,17.260374 0 0 1 42.458596,22.541997"
             sodipodi:ry="17.260374"
             sodipodi:rx="17.260374"
             sodipodi:cy="22.799852"
             sodipodi:cx="25.200148"
             id="path3049"
             style="fill:#ffffff;fill-opacity:1;fill-rule:nonzero;stroke:none"
             sodipodi:type="arc" />
        </g>
        <rect
           style="fill:#000000;fill-opacity:1;fill-rule:nonzero;stroke:none"
           id="rect3051"
           width="14.671318"
           height="2.4164524"
           x="-668.82275"
           y="792.35413"
           transform="matrix(0.75630813,-0.65421557,0.65421557,0.75630813,0,0)"
           inkscape:transform-center-x="2.6821338"
           inkscape:transform-center-y="-3.9756538" />
      </g>
    </g>
  </g>
</svg>
