<?xml version="1.0" encoding="UTF-8" standalone="no"?>
<!-- Created with Inkscape (http://www.inkscape.org/) -->

<svg
   xmlns:dc="http://purl.org/dc/elements/1.1/"
   xmlns:cc="http://creativecommons.org/ns#"
   xmlns:rdf="http://www.w3.org/1999/02/22-rdf-syntax-ns#"
   xmlns:svg="http://www.w3.org/2000/svg"
   xmlns="http://www.w3.org/2000/svg"
   xmlns:sodipodi="http://sodipodi.sourceforge.net/DTD/sodipodi-0.dtd"
   xmlns:inkscape="http://www.inkscape.org/namespaces/inkscape"
   width="32"
   height="32"
   viewBox="0 0 8.4666665 8.4666669"
   version="1.1"
   id="svg71"
   inkscape:version="0.92.3 (2405546, 2018-03-11)"
   sodipodi:docname="modelo-adicionar32.svg"
   inkscape:export-filename="/home/paulojunior/Dropbox/pjlaapps/bibliapesquisa_mobile/img/adicionar32.png"
   inkscape:export-xdpi="96.25"
   inkscape:export-ydpi="96.25">
  <defs
     id="defs65" />
  <sodipodi:namedview
     id="base"
     pagecolor="#ffffff"
     bordercolor="#666666"
     borderopacity="1.0"
     inkscape:pageopacity="0.0"
     inkscape:pageshadow="2"
     inkscape:zoom="11.739583"
     inkscape:cx="-1.1641531"
     inkscape:cy="13.735581"
     inkscape:document-units="mm"
     inkscape:current-layer="layer1"
     showgrid="false"
     units="px"
     inkscape:window-width="1680"
     inkscape:window-height="996"
     inkscape:window-x="0"
     inkscape:window-y="0"
     inkscape:window-maximized="1" />
  <metadata
     id="metadata68">
    <rdf:RDF>
      <cc:Work
         rdf:about="">
        <dc:format>image/svg+xml</dc:format>
        <dc:type
           rdf:resource="http://purl.org/dc/dcmitype/StillImage" />
        <dc:title />
      </cc:Work>
    </rdf:RDF>
  </metadata>
  <g
     inkscape:label="Camada 1"
     inkscape:groupmode="layer"
     id="layer1"
     transform="translate(0,-288.53332)">
    <g
       id="g210">
      <g
         id="g4142"
         transform="matrix(0.17587087,0,0,0.17680962,0.04117482,110.97382)">
        <circle
           style="fill:#000000;stroke:none;stroke-width:1;stroke-miterlimit:4;stroke-dasharray:none;stroke-opacity:1"
           id="path4138"
           cx="23.922005"
           cy="1028.354"
           r="24.008055" />
        <circle
           r="22.674274"
           cy="1028.354"
           cx="23.922005"
           id="circle4140"
           style="fill:#ffffff;stroke:none;stroke-width:1;stroke-miterlimit:4;stroke-dasharray:none;stroke-opacity:1" />
      </g>
      <g
         transform="matrix(0.17726555,0,0,0.24432923,-8.5061003,43.607293)"
         id="g4458">
        <path
           inkscape:connector-curvature="0"
           style="fill:#ffffff;fill-opacity:1;stroke:#000000;stroke-width:0.40000001;stroke-miterlimit:4;stroke-dasharray:none;stroke-opacity:1"
           d="m 54.666016,1015.0165 c -0.0137,0 -0.02344,0.012 -0.02344,0.025 v 11.6523 c 0,0.014 0.0097,0.025 0.02344,0.025 h 10.535156 c 0.01369,0 0.02539,-0.012 0.02539,-0.025 v -8.3281 c 0,0 -0.0039,0.01 -0.0078,0.01 h -3.341797 c -0.0039,0 -0.0059,0 -0.0059,-0.01 v -3.3418 c 0,0 0.0019,-0.01 0.0059,-0.01 h -7.210937 z"
           id="rect4368" />
        <path
           style="fill:#ffffff;fill-opacity:1;stroke:#000000;stroke-width:0.40000001;stroke-miterlimit:4;stroke-dasharray:none;stroke-opacity:1"
           d="m 61.887629,1015.0054 c -0.0039,0 -0.0078,0 -0.0078,0.01 v 3.3418 c 0,0 0.0039,0.01 0.0078,0.01 h 3.341797 c 0.0039,0 0.0078,0 0.0078,-0.01 v -0.014 l -3.333984,-3.334 h -0.01563 z"
           id="rect4375"
           inkscape:connector-curvature="0" />
        <rect
           style="fill:#000000;fill-opacity:1;stroke:none;stroke-width:0.40000001;stroke-miterlimit:4;stroke-dasharray:none;stroke-opacity:1"
           id="rect4392"
           width="3.6991913"
           height="0.43806207"
           x="56.113697"
           y="1017.6093"
           ry="0.010112973" />
        <rect
           ry="0.010112973"
           y="1019.2236"
           x="56.01635"
           height="0.43806207"
           width="5.9868488"
           id="rect4394"
           style="fill:#000000;fill-opacity:1;stroke:none;stroke-width:0.40000001;stroke-miterlimit:4;stroke-dasharray:none;stroke-opacity:1" />
        <rect
           style="fill:#000000;fill-opacity:1;stroke:none;stroke-width:0.40000001;stroke-miterlimit:4;stroke-dasharray:none;stroke-opacity:1"
           id="rect4396"
           width="5.9868488"
           height="0.43806207"
           x="55.967674"
           y="1020.838"
           ry="0.010112973" />
        <rect
           ry="0.010112973"
           y="1022.4523"
           x="56.01635"
           height="0.43806207"
           width="5.9868488"
           id="rect4398"
           style="fill:#000000;fill-opacity:1;stroke:none;stroke-width:0.40000001;stroke-miterlimit:4;stroke-dasharray:none;stroke-opacity:1" />
      </g>
      <g
         transform="translate(-0.81135759,0.51836735)"
         id="g158">
        <rect
           style="fill:#000000;stroke-width:0.26458332"
           id="rect148"
           width="0.69866902"
           height="1.8931677"
           x="4.82307"
           y="291.52332" />
        <rect
           y="4.2258205"
           x="-292.81924"
           height="1.8931677"
           width="0.69866902"
           id="rect154"
           style="fill:#000000;stroke-width:0.26458332"
           transform="rotate(-90)" />
      </g>
      <path
         inkscape:connector-curvature="0"
         style="fill:#ffffff;fill-opacity:1;stroke:#000000;stroke-width:0.08324533;stroke-miterlimit:4;stroke-dasharray:none;stroke-opacity:1"
         d="m 5.6467678,291.60549 c -0.00243,0 -0.00416,0.003 -0.00416,0.006 v 2.847 c 0,0.003 0.00172,0.006 0.00416,0.006 H 7.514288 c 0.00243,0 0.0045,-0.003 0.0045,-0.006 v -2.0348 c 0,0 -6.913e-4,0.002 -0.00138,0.002 H 6.9250206 c -6.913e-4,0 -0.00105,0 -0.00105,-0.002 v -0.8165 c 0,0 3.368e-4,-0.002 0.00105,-0.002 H 5.6467699 Z"
         id="path160" />
      <path
         style="fill:#ffffff;fill-opacity:1;stroke:#000000;stroke-width:0.08324533;stroke-miterlimit:4;stroke-dasharray:none;stroke-opacity:1"
         d="m 6.926911,291.60278 c -6.913e-4,0 -0.00138,0 -0.00138,0.002 v 0.8165 c 0,0 6.914e-4,0.002 0.00138,0.002 h 0.5923855 c 6.913e-4,0 0.00138,0 0.00138,-0.002 v -0.003 L 6.929676,291.60369 h -0.00277 z"
         id="path162"
         inkscape:connector-curvature="0" />
      <g
         transform="matrix(0.62222216,0,0,0.59210905,9.6155888,119.89576)"
         id="g189">
        <ellipse
           style="fill:#000000;stroke-width:0.26458332"
           id="path180"
           cx="-4.7329192"
           cy="292.71783"
           rx="0.69866902"
           ry="0.76628214" />
        <ellipse
           ry="0.56344277"
           rx="0.55217391"
           cy="293.10098"
           cx="-5.3752437"
           id="ellipse182"
           style="fill:#000000;stroke-width:0.20169502" />
        <ellipse
           style="fill:#000000;stroke-width:0.2136872"
           id="ellipse184"
           cx="-4.4624667"
           cy="293.04465"
           rx="0.56344277"
           ry="0.61978704" />
      </g>
    </g>
  </g>
</svg>
