<?xml version="1.0" encoding="UTF-8" standalone="no"?>
<!-- Created with Inkscape (http://www.inkscape.org/) -->

<svg
   xmlns:dc="http://purl.org/dc/elements/1.1/"
   xmlns:cc="http://creativecommons.org/ns#"
   xmlns:rdf="http://www.w3.org/1999/02/22-rdf-syntax-ns#"
   xmlns:svg="http://www.w3.org/2000/svg"
   xmlns="http://www.w3.org/2000/svg"
   xmlns:sodipodi="http://sodipodi.sourceforge.net/DTD/sodipodi-0.dtd"
   xmlns:inkscape="http://www.inkscape.org/namespaces/inkscape"
   width="32"
   height="32"
   id="svg2"
   version="1.1"
   inkscape:version="0.91 r13725"
   sodipodi:docname="modelo-menu-32.svg">
  <defs
     id="defs4" />
  <sodipodi:namedview
     id="base"
     pagecolor="#ffffff"
     bordercolor="#666666"
     borderopacity="1.0"
     inkscape:pageopacity="0.0"
     inkscape:pageshadow="2"
     inkscape:zoom="11.587234"
     inkscape:cx="25.047729"
     inkscape:cy="13.598043"
     inkscape:document-units="px"
     inkscape:current-layer="layer1"
     showgrid="false"
     inkscape:window-width="1680"
     inkscape:window-height="1000"
     inkscape:window-x="0"
     inkscape:window-y="0"
     inkscape:window-maximized="1" />
  <metadata
     id="metadata7">
    <rdf:RDF>
      <cc:Work
         rdf:about="">
        <dc:format>image/svg+xml</dc:format>
        <dc:type
           rdf:resource="http://purl.org/dc/dcmitype/StillImage" />
        <dc:title></dc:title>
      </cc:Work>
    </rdf:RDF>
  </metadata>
  <g
     inkscape:label="Camada 1"
     inkscape:groupmode="layer"
     id="layer1"
     transform="translate(0,-1020.3622)">
    <g
       id="g4139"
       transform="matrix(0.7076923,0,0,0.7076923,-1.1352012,308.62661)">
      <path
         sodipodi:open="true"
         sodipodi:end="6.2682456"
         sodipodi:start="0"
         transform="matrix(1.3,0,0,1.3,-8.5956669,998.73041)"
         d="M 42.460522,22.799852 A 17.260374,17.260374 0 0 1 25.264614,40.060106 17.260374,17.260374 0 0 1 7.9402551,22.928784 17.260374,17.260374 0 0 1 25.006753,5.5405618 17.260374,17.260374 0 0 1 42.458596,22.541997"
         sodipodi:ry="17.260374"
         sodipodi:rx="17.260374"
         sodipodi:cy="22.799852"
         sodipodi:cx="25.200148"
         id="path2985"
         style="fill:#000000;fill-opacity:1;fill-rule:nonzero;stroke:none"
         sodipodi:type="arc" />
      <path
         sodipodi:type="arc"
         style="fill:#ffffff;fill-opacity:1;fill-rule:nonzero;stroke:none"
         id="path2987"
         sodipodi:cx="25.200148"
         sodipodi:cy="22.799852"
         sodipodi:rx="17.260374"
         sodipodi:ry="17.260374"
         d="M 42.460522,22.799852 A 17.260374,17.260374 0 0 1 25.264614,40.060106 17.260374,17.260374 0 0 1 7.9402551,22.928784 17.260374,17.260374 0 0 1 25.006753,5.5405618 17.260374,17.260374 0 0 1 42.458596,22.541997"
         transform="matrix(1.17,0,0,1.17,-5.1470439,1001.5218)"
         sodipodi:start="0"
         sodipodi:end="6.2682456"
         sodipodi:open="true" />
      <g
         transform="translate(1.864563e-7,-1.6827684)"
         id="g2989">
        <rect
           style="fill:#000000;fill-opacity:1;fill-rule:nonzero;stroke:none"
           id="rect2989"
           width="21.057657"
           height="7.5195804"
           x="13.8083"
           y="1017.2372" />
        <rect
           y="1026.1206"
           x="13.8083"
           height="7.5195804"
           width="21.057657"
           id="rect2985"
           style="fill:#000000;fill-opacity:1;fill-rule:nonzero;stroke:none" />
        <rect
           style="fill:#000000;fill-opacity:1;fill-rule:nonzero;stroke:none"
           id="rect2987"
           width="21.057657"
           height="7.5195804"
           x="13.8083"
           y="1035.004" />
      </g>
    </g>
  </g>
</svg>
